<svg width="16" height="15" viewBox="0 0 16 15" fill="none" xmlns="http://www.w3.org/2000/svg">
<path d="M5 7C5 7.55228 4.55228 8 4 8C3.44772 8 3 7.55228 3 7C3 6.44772 3.44772 6 4 6C4.55228 6 5 6.44772 5 7Z" fill="#0F6D5E"/>
<path d="M9 7C9 7.55228 8.55229 8 8 8C7.44772 8 7 7.55228 7 7C7 6.44772 7.44772 6 8 6C8.55229 6 9 6.44772 9 7Z" fill="#0F6D5E"/>
<path d="M12 8C12.5523 8 13 7.55228 13 7C13 6.44772 12.5523 6 12 6C11.4477 6 11 6.44772 11 7C11 7.55228 11.4477 8 12 8Z" fill="#0F6D5E"/>
<path d="M2.16466 14.8029L2.18489 14.7989C4.01434 14.4363 5.13337 13.9571 5.65284 13.6939C6.39508 13.8929 7.18324 14 8 14C12.4183 14 16 10.866 16 7C16 3.13401 12.4183 0 8 0C3.58172 0 0 3.13401 0 7C0 8.76087 0.743061 10.3699 1.96979 11.6001C1.89596 12.3711 1.69422 13.1984 1.44648 13.9181L1.44259 13.9294C1.41245 14.0167 1.38164 14.1023 1.3503 14.1861C1.30097 14.3179 1.25034 14.4451 1.19898 14.5664C1.12037 14.7521 1.27271 14.9603 1.47172 14.9277C1.61264 14.9047 1.75 14.8808 1.88382 14.8563C1.97922 14.8388 2.07283 14.821 2.16466 14.8029ZM2.96523 11.6954C2.99363 11.3988 2.88828 11.1049 2.67789 10.894C1.6173 9.83038 1 8.46809 1 7C1 3.80754 4.0044 1 8 1C11.9956 1 15 3.80754 15 7C15 10.1925 11.9956 13 8 13C7.27076 13 6.56966 12.9044 5.91182 12.728C5.67381 12.6642 5.42062 12.6905 5.20082 12.8019C4.81358 12.9981 3.96166 13.3721 2.56677 13.6945C2.75502 13.0519 2.90159 12.3601 2.96523 11.6954Z" fill="#0F6D5E"/>
</svg>
