<svg width="16" height="13" viewBox="0 0 16 13" fill="none" xmlns="http://www.w3.org/2000/svg">
<path fillRule="evenodd" clipRule="evenodd" d="M3.74949 1.4494C2.6435 1.95496 1.83325 3.15743 1.83325 4.59134C1.83325 6.05627 2.43273 7.18543 3.29211 8.15312C4.0004 8.95068 4.85781 9.61169 5.694 10.2563C5.89261 10.4095 6.09002 10.5617 6.28395 10.7145C6.63464 10.991 6.94747 11.2336 7.24899 11.4098C7.55068 11.5861 7.79352 11.6666 7.99992 11.6666C8.20632 11.6666 8.44916 11.5861 8.75084 11.4098C9.05237 11.2336 9.3652 10.991 9.71589 10.7145C9.90982 10.5617 10.1072 10.4095 10.3058 10.2563C11.142 9.61169 11.9994 8.95068 12.7077 8.15312C13.5671 7.18543 14.1666 6.05627 14.1666 4.59134C14.1666 3.15743 13.3563 1.95496 12.2503 1.4494C11.1759 0.958258 9.73214 1.08832 8.36016 2.51376C8.2659 2.61169 8.13584 2.66703 7.99992 2.66703C7.864 2.66703 7.73393 2.61169 7.63967 2.51376C6.26769 1.08832 4.82396 0.958258 3.74949 1.4494ZM7.99992 1.47248C6.45855 0.0934352 4.73256 -0.0994796 3.33376 0.539915C1.85639 1.21522 0.833252 2.78329 0.833252 4.59134C0.833252 6.36836 1.57358 7.72397 2.5444 8.81714C3.32183 9.69256 4.2734 10.4252 5.1138 11.0723C5.30431 11.219 5.4891 11.3613 5.66486 11.4999C6.00635 11.7691 6.37295 12.0561 6.74447 12.2732C7.11582 12.4902 7.53965 12.6666 7.99992 12.6666C8.46018 12.6666 8.88401 12.4902 9.25537 12.2732C9.62689 12.0561 9.99348 11.7691 10.335 11.4999C10.5107 11.3613 10.6955 11.219 10.886 11.0723C11.7264 10.4252 12.678 9.69256 13.4554 8.81714C14.4263 7.72397 15.1666 6.36836 15.1666 4.59134C15.1666 2.78329 14.1434 1.21522 12.6661 0.539915C11.2673 -0.0994796 9.54129 0.0934352 7.99992 1.47248Z" fill="#525252"/>
</svg>
